<?xml version="1.0" standalone="no"?>
<!DOCTYPE svg PUBLIC "-//W3C//DTD SVG 20010904//EN"
 "http://www.w3.org/TR/2001/REC-SVG-20010904/DTD/svg10.dtd">
<svg version="1.0" xmlns="http://www.w3.org/2000/svg"
 width="687.000000pt" height="687.000000pt" viewBox="0 0 687.000000 687.000000"
 preserveAspectRatio="xMidYMid meet">
<metadata>
Created by potrace 1.14, written by Peter Selinger 2001-2017
</metadata>
<g transform="translate(0.000000,687.000000) scale(0.100000,-0.100000)"
fill="#000000" stroke="none">
<path d="M20 3425 l0 -3405 3405 0 3405 0 0 3405 0 3405 -3405 0 -3405 0 0
-3405z m2720 2406 l0 -228 -62 -6 c-142 -13 -277 -78 -382 -183 -72 -73 -118
-145 -154 -246 l-27 -73 -6 -485 c-5 -481 -6 -486 -31 -580 -35 -129 -60 -191
-112 -283 -55 -96 -136 -198 -213 -267 l-58 -52 95 -96 c160 -161 248 -323
302 -552 6 -26 13 -251 17 -530 8 -537 7 -525 79 -665 49 -94 163 -209 257
-257 79 -40 153 -63 238 -73 l57 -7 0 -229 0 -230 -67 6 c-475 42 -848 343
-977 788 -38 130 -46 251 -46 676 0 432 -5 478 -71 601 -100 187 -316 330
-501 330 l-58 0 0 235 0 235 48 0 c112 0 269 65 366 152 89 79 154 182 199
313 6 18 13 225 17 505 7 510 10 545 66 704 122 352 442 632 799 700 44 8 89
17 100 19 11 3 44 5 73 6 l52 1 0 -229z m1635 194 c369 -93 681 -404 782 -780
l27 -100 6 -485 6 -485 27 -82 c35 -106 111 -219 191 -285 99 -83 259 -148
363 -148 l43 0 0 -235 0 -235 -52 0 c-192 -1 -412 -149 -507 -340 -67 -137
-71 -168 -71 -640 0 -428 -5 -498 -46 -640 -54 -186 -183 -386 -331 -511 -183
-156 -389 -241 -640 -264 l-73 -6 0 229 0 229 68 7 c239 24 456 201 534 436
21 62 22 89 29 535 7 499 10 540 59 687 57 169 134 292 265 425 l92 91 -71 69
c-167 161 -271 348 -322 578 -15 67 -18 156 -24 555 -5 423 -8 480 -24 524
-70 192 -172 307 -341 387 -78 37 -166 59 -232 59 l-33 0 0 231 0 232 88 -6
c48 -4 132 -18 187 -32z"/>
</g>
</svg>
