<?xml version="1.0" standalone="no"?>
<!DOCTYPE svg PUBLIC "-//W3C//DTD SVG 20010904//EN"
 "http://www.w3.org/TR/2001/REC-SVG-20010904/DTD/svg10.dtd">
<svg version="1.0" xmlns="http://www.w3.org/2000/svg"
 width="701.000000pt" height="701.000000pt" viewBox="0 0 701.000000 701.000000"
 preserveAspectRatio="xMidYMid meet">
<metadata>
Created by potrace 1.14, written by Peter Selinger 2001-2017
</metadata>
<g transform="translate(0.000000,701.000000) scale(0.100000,-0.100000)"
fill="#000000" stroke="none">
<path d="M30 3495 l0 -3465 3470 0 3470 0 0 3465 0 3465 -3470 0 -3470 0 0
-3465z m2780 2401 l0 -225 -47 -6 c-96 -12 -150 -28 -233 -67 -160 -76 -293
-242 -334 -418 -13 -52 -16 -140 -16 -453 0 -213 -5 -431 -10 -485 -28 -258
-133 -476 -320 -661 l-87 -87 87 -86 c185 -182 292 -403 320 -660 5 -54 10
-272 10 -485 0 -434 4 -462 68 -593 54 -111 170 -226 282 -279 81 -39 193 -70
253 -71 l27 0 0 -225 0 -225 -49 0 c-74 0 -212 27 -308 60 -269 93 -488 288
-614 545 -103 213 -119 327 -119 872 0 229 -4 392 -11 425 -6 29 -29 91 -51
138 -34 70 -56 100 -127 170 -119 117 -252 180 -383 180 l-58 0 2 233 3 232
60 3 c232 13 458 195 537 432 21 61 22 90 29 530 4 275 11 491 18 528 61 331
273 621 571 780 122 65 321 119 448 121 l52 1 0 -224z m1555 208 c479 -83 842
-471 895 -956 5 -54 10 -270 10 -480 0 -297 4 -399 15 -452 55 -258 314 -484
559 -487 l56 -1 0 -234 0 -234 -52 0 c-70 0 -147 -22 -238 -66 -99 -48 -221
-170 -267 -264 -70 -144 -67 -119 -74 -635 -7 -501 -10 -540 -60 -690 -134
-403 -521 -704 -941 -732 l-88 -6 0 225 0 225 63 7 c221 25 416 163 507 358
57 124 60 148 60 558 0 206 5 426 11 489 25 266 134 495 323 680 l87 84 -73
71 c-131 127 -218 259 -278 423 -58 159 -62 206 -69 718 -8 516 -5 497 -74
630 -44 85 -182 221 -268 262 -77 37 -152 59 -231 68 l-58 6 0 225 0 224 48 0
c26 0 88 -7 137 -16z"/>
</g>
</svg>
